# xmcd CD database file
#
# Track frame offsets:
#	150
#	21777
#	42350
#
# Disc length: 850 seconds
#
# Revision: 0
# Processed by: cddbd v1.5PL3 Copyright (c) Steve Scherf et al.
# Submitted via: CDex 1.50beta9
#
DISCID=1c035003
DTITLE=工藤静香 - 慟哭
DYEAR=1900
DGENRE=Pop
TTITLE0=慟哭
TTITLE1=コール
TTITLE2=慟哭(オリジナルカラオケ)
EXTD=
EXTT0=
EXTT1=
EXTT2=
PLAYORDER=
